<svg width="340" height="448" viewBox="0 0 340 448" fill="none" xmlns="http://www.w3.org/2000/svg">
<g filter="url(#filter0_dd_1_3)">
<path d="M227.95 392.416C227.95 405.441 217.813 416 205.307 416C192.802 416 182.664 405.441 182.664 392.416C182.664 379.392 192.802 368.833 205.307 368.833C217.813 368.833 227.95 379.392 227.95 392.416Z" fill="url(#paint0_linear_1_3)" shape-rendering="crispEdges"/>
</g>
<g filter="url(#filter1_dd_1_3)">
<ellipse cx="58.643" cy="286.584" rx="22.643" ry="23.5836" fill="url(#paint1_linear_1_3)" shape-rendering="crispEdges"/>
</g>
<g filter="url(#filter2_dd_1_3)">
<ellipse cx="274.36" cy="317.146" rx="16.7515" ry="17.4474" fill="url(#paint2_linear_1_3)" shape-rendering="crispEdges"/>
</g>
<ellipse cx="170" cy="177.062" rx="170" ry="177.062" fill="url(#paint3_radial_1_3)" fill-opacity="0.6"/>
<g filter="url(#filter3_d_1_3)">
<ellipse cx="204.968" cy="216.781" rx="101.856" ry="66.4604" fill="url(#paint4_linear_1_3)" fill-opacity="0.5" shape-rendering="crispEdges"/>
<path d="M306.353 216.781C306.353 234.923 295.083 251.409 276.734 263.382C258.388 275.352 233.017 282.771 204.968 282.771C176.919 282.771 151.548 275.352 133.202 263.382C114.853 251.409 103.583 234.923 103.583 216.781C103.583 198.64 114.853 182.154 133.202 170.181C151.548 158.21 176.919 150.791 204.968 150.791C233.017 150.791 258.388 158.21 276.734 170.181C295.083 182.154 306.353 198.64 306.353 216.781Z" stroke="url(#paint5_linear_1_3)" stroke-opacity="0.6" stroke-width="0.941174" shape-rendering="crispEdges"/>
</g>
<ellipse cx="204.967" cy="154.81" rx="129.22" ry="134.588" fill="url(#paint6_radial_1_3)"/>
<ellipse cx="204.966" cy="177.062" rx="126.334" ry="76.9781" fill="url(#paint7_linear_1_3)" fill-opacity="0.5"/>
<path d="M330.83 177.062C330.83 198.092 316.838 217.209 294.053 231.092C271.276 244.97 239.78 253.57 204.966 253.57C170.152 253.57 138.656 244.97 115.879 231.092C93.0941 217.209 79.1025 198.092 79.1025 177.062C79.1025 156.032 93.0941 136.916 115.879 123.032C138.656 109.154 170.152 100.555 204.966 100.555C239.78 100.555 271.276 109.154 294.053 123.032C316.838 136.916 330.83 156.032 330.83 177.062Z" stroke="url(#paint8_linear_1_3)" stroke-opacity="0.6" stroke-width="0.941174"/>
<ellipse cx="204.966" cy="154.809" rx="95.7159" ry="99.6919" fill="url(#paint9_radial_1_3)"/>
<ellipse cx="204.966" cy="154.809" rx="95.7159" ry="99.6919" fill="url(#paint10_radial_1_3)"/>
<g filter="url(#filter4_d_1_3)">
<ellipse cx="204.967" cy="129.271" rx="125.049" ry="75.198" fill="url(#paint11_linear_1_3)" fill-opacity="0.5" shape-rendering="crispEdges"/>
<path d="M329.546 129.271C329.546 149.807 315.701 168.478 293.148 182.041C270.603 195.598 239.427 203.998 204.967 203.998C170.506 203.998 139.331 195.598 116.786 182.041C94.2324 168.478 80.3882 149.807 80.3882 129.271C80.3882 108.735 94.2324 90.0639 116.786 76.5013C139.331 62.9441 170.506 54.5436 204.967 54.5436C239.427 54.5436 270.603 62.9441 293.148 76.5013C315.701 90.0639 329.546 108.735 329.546 129.271Z" stroke="url(#paint12_linear_1_3)" stroke-opacity="0.6" stroke-width="0.941174" shape-rendering="crispEdges"/>
</g>
<g filter="url(#filter5_d_1_3)">
<ellipse cx="204.966" cy="90.44" rx="97.0346" ry="65.326" fill="url(#paint13_linear_1_3)" fill-opacity="0.5" shape-rendering="crispEdges"/>
<path d="M301.53 90.44C301.53 108.275 290.792 124.477 273.317 136.242C255.845 148.005 231.681 155.295 204.966 155.295C178.252 155.295 154.087 148.005 136.615 136.242C119.14 124.477 108.402 108.275 108.402 90.44C108.402 72.6049 119.14 56.4026 136.615 44.6379C154.087 32.8752 178.252 25.5846 204.966 25.5846C231.681 25.5846 255.845 32.8752 273.317 44.6379C290.792 56.4026 301.53 72.6049 301.53 90.44Z" stroke="url(#paint14_linear_1_3)" stroke-opacity="0.6" stroke-width="0.941174" shape-rendering="crispEdges"/>
</g>
<ellipse cx="204.968" cy="67.7503" rx="60.3968" ry="42.6363" fill="url(#paint15_linear_1_3)" fill-opacity="0.5"/>
<path d="M264.894 67.7503C264.894 79.33 258.246 89.8601 247.404 97.5142C236.562 105.167 221.561 109.916 204.968 109.916C188.376 109.916 173.374 105.167 162.533 97.5142C151.69 89.8601 145.042 79.33 145.042 67.7503C145.042 56.1705 151.69 45.6404 162.533 37.9863C173.374 30.3331 188.376 25.5846 204.968 25.5846C221.561 25.5846 236.562 30.3331 247.404 37.9863C258.246 45.6404 264.894 56.1705 264.894 67.7503Z" stroke="url(#paint16_linear_1_3)" stroke-opacity="0.6" stroke-width="0.941174"/>
<ellipse cx="204.967" cy="53.1952" rx="34.9668" ry="25.0588" fill="url(#paint17_linear_1_3)" fill-opacity="0.5"/>
<path d="M239.463 53.1952C239.463 59.9243 235.658 66.0601 229.418 70.532C223.179 75.0033 214.536 77.7835 204.967 77.7835C195.398 77.7835 186.755 75.0033 180.516 70.532C174.276 66.0601 170.471 59.9243 170.471 53.1952C170.471 46.4662 174.276 40.3303 180.516 35.8585C186.755 31.3872 195.398 28.607 204.967 28.607C214.536 28.607 223.179 31.3872 229.418 35.8585C235.658 40.3303 239.463 46.4662 239.463 53.1952Z" stroke="url(#paint18_linear_1_3)" stroke-opacity="0.6" stroke-width="0.941174"/>
<ellipse cx="204.967" cy="154.809" rx="129.22" ry="134.588" fill="url(#paint19_radial_1_3)" fill-opacity="0.3"/>
<defs>
<filter id="filter0_dd_1_3" x="149.723" y="334.009" width="111.168" height="113.049" filterUnits="userSpaceOnUse" color-interpolation-filters="sRGB">
<feFlood flood-opacity="0" result="BackgroundImageFix"/>
<feColorMatrix in="SourceAlpha" type="matrix" values="0 0 0 0 0 0 0 0 0 0 0 0 0 0 0 0 0 0 127 0" result="hardAlpha"/>
<feOffset dy="-1.88235"/>
<feGaussianBlur stdDeviation="16.4705"/>
<feComposite in2="hardAlpha" operator="out"/>
<feColorMatrix type="matrix" values="0 0 0 0 0.371081 0 0 0 0 0.235903 0 0 0 0 0.658333 0 0 0 1 0"/>
<feBlend mode="normal" in2="BackgroundImageFix" result="effect1_dropShadow_1_3"/>
<feColorMatrix in="SourceAlpha" type="matrix" values="0 0 0 0 0 0 0 0 0 0 0 0 0 0 0 0 0 0 127 0" result="hardAlpha"/>
<feOffset dy="-1.88235"/>
<feGaussianBlur stdDeviation="9.41174"/>
<feComposite in2="hardAlpha" operator="out"/>
<feColorMatrix type="matrix" values="0 0 0 0 0.48825 0 0 0 0 0.372778 0 0 0 0 0.733333 0 0 0 1 0"/>
<feBlend mode="normal" in2="effect1_dropShadow_1_3" result="effect2_dropShadow_1_3"/>
<feBlend mode="normal" in="SourceGraphic" in2="effect2_dropShadow_1_3" result="shape"/>
</filter>
<filter id="filter1_dd_1_3" x="3.05891" y="228.177" width="111.168" height="113.049" filterUnits="userSpaceOnUse" color-interpolation-filters="sRGB">
<feFlood flood-opacity="0" result="BackgroundImageFix"/>
<feColorMatrix in="SourceAlpha" type="matrix" values="0 0 0 0 0 0 0 0 0 0 0 0 0 0 0 0 0 0 127 0" result="hardAlpha"/>
<feOffset dy="-1.88235"/>
<feGaussianBlur stdDeviation="16.4705"/>
<feComposite in2="hardAlpha" operator="out"/>
<feColorMatrix type="matrix" values="0 0 0 0 0.371081 0 0 0 0 0.235903 0 0 0 0 0.658333 0 0 0 1 0"/>
<feBlend mode="normal" in2="BackgroundImageFix" result="effect1_dropShadow_1_3"/>
<feColorMatrix in="SourceAlpha" type="matrix" values="0 0 0 0 0 0 0 0 0 0 0 0 0 0 0 0 0 0 127 0" result="hardAlpha"/>
<feOffset dy="-1.88235"/>
<feGaussianBlur stdDeviation="9.41174"/>
<feComposite in2="hardAlpha" operator="out"/>
<feColorMatrix type="matrix" values="0 0 0 0 0.48825 0 0 0 0 0.372778 0 0 0 0 0.733333 0 0 0 1 0"/>
<feBlend mode="normal" in2="effect1_dropShadow_1_3" result="effect2_dropShadow_1_3"/>
<feBlend mode="normal" in="SourceGraphic" in2="effect2_dropShadow_1_3" result="shape"/>
</filter>
<filter id="filter2_dd_1_3" x="224.667" y="264.875" width="99.3852" height="100.777" filterUnits="userSpaceOnUse" color-interpolation-filters="sRGB">
<feFlood flood-opacity="0" result="BackgroundImageFix"/>
<feColorMatrix in="SourceAlpha" type="matrix" values="0 0 0 0 0 0 0 0 0 0 0 0 0 0 0 0 0 0 127 0" result="hardAlpha"/>
<feOffset dy="-1.88235"/>
<feGaussianBlur stdDeviation="16.4705"/>
<feComposite in2="hardAlpha" operator="out"/>
<feColorMatrix type="matrix" values="0 0 0 0 0.371081 0 0 0 0 0.235903 0 0 0 0 0.658333 0 0 0 1 0"/>
<feBlend mode="normal" in2="BackgroundImageFix" result="effect1_dropShadow_1_3"/>
<feColorMatrix in="SourceAlpha" type="matrix" values="0 0 0 0 0 0 0 0 0 0 0 0 0 0 0 0 0 0 127 0" result="hardAlpha"/>
<feOffset dy="-1.88235"/>
<feGaussianBlur stdDeviation="9.41174"/>
<feComposite in2="hardAlpha" operator="out"/>
<feColorMatrix type="matrix" values="0 0 0 0 0.48825 0 0 0 0 0.372778 0 0 0 0 0.733333 0 0 0 1 0"/>
<feBlend mode="normal" in2="effect1_dropShadow_1_3" result="effect2_dropShadow_1_3"/>
<feBlend mode="normal" in="SourceGraphic" in2="effect2_dropShadow_1_3" result="shape"/>
</filter>
<filter id="filter3_d_1_3" x="93.7007" y="141.85" width="222.535" height="151.744" filterUnits="userSpaceOnUse" color-interpolation-filters="sRGB">
<feFlood flood-opacity="0" result="BackgroundImageFix"/>
<feColorMatrix in="SourceAlpha" type="matrix" values="0 0 0 0 0 0 0 0 0 0 0 0 0 0 0 0 0 0 127 0" result="hardAlpha"/>
<feOffset dy="0.941174"/>
<feGaussianBlur stdDeviation="4.70587"/>
<feComposite in2="hardAlpha" operator="out"/>
<feColorMatrix type="matrix" values="0 0 0 0 0.440043 0 0 0 0 0.20092 0 0 0 0 0.679167 0 0 0 0.3 0"/>
<feBlend mode="normal" in2="BackgroundImageFix" result="effect1_dropShadow_1_3"/>
<feBlend mode="normal" in="SourceGraphic" in2="effect1_dropShadow_1_3" result="shape"/>
</filter>
<filter id="filter4_d_1_3" x="75.2117" y="50.3083" width="259.51" height="159.808" filterUnits="userSpaceOnUse" color-interpolation-filters="sRGB">
<feFlood flood-opacity="0" result="BackgroundImageFix"/>
<feColorMatrix in="SourceAlpha" type="matrix" values="0 0 0 0 0 0 0 0 0 0 0 0 0 0 0 0 0 0 127 0" result="hardAlpha"/>
<feOffset dy="0.941174"/>
<feGaussianBlur stdDeviation="2.35293"/>
<feComposite in2="hardAlpha" operator="out"/>
<feColorMatrix type="matrix" values="0 0 0 0 0.369333 0 0 0 0 0.0916667 0 0 0 0 0.5 0 0 0 0.15 0"/>
<feBlend mode="normal" in2="BackgroundImageFix" result="effect1_dropShadow_1_3"/>
<feBlend mode="normal" in="SourceGraphic" in2="effect1_dropShadow_1_3" result="shape"/>
</filter>
<filter id="filter5_d_1_3" x="101.814" y="18.9964" width="208.187" height="144.77" filterUnits="userSpaceOnUse" color-interpolation-filters="sRGB">
<feFlood flood-opacity="0" result="BackgroundImageFix"/>
<feColorMatrix in="SourceAlpha" type="matrix" values="0 0 0 0 0 0 0 0 0 0 0 0 0 0 0 0 0 0 127 0" result="hardAlpha"/>
<feOffset dx="0.941174" dy="0.941174"/>
<feGaussianBlur stdDeviation="3.5294"/>
<feComposite in2="hardAlpha" operator="out"/>
<feColorMatrix type="matrix" values="0 0 0 0 0.440043 0 0 0 0 0.20092 0 0 0 0 0.679167 0 0 0 0.2 0"/>
<feBlend mode="normal" in2="BackgroundImageFix" result="effect1_dropShadow_1_3"/>
<feBlend mode="normal" in="SourceGraphic" in2="effect1_dropShadow_1_3" result="shape"/>
</filter>
<linearGradient id="paint0_linear_1_3" x1="205.307" y1="358.579" x2="205.307" y2="441.293" gradientUnits="userSpaceOnUse">
<stop stop-color="white"/>
<stop offset="0.223958" stop-color="#5F3CA8"/>
<stop offset="0.623188" stop-color="#371B73" stop-opacity="0.6"/>
<stop offset="1" stop-color="#0A1153" stop-opacity="0.4"/>
</linearGradient>
<linearGradient id="paint1_linear_1_3" x1="58.643" y1="252.746" x2="58.643" y2="335.46" gradientUnits="userSpaceOnUse">
<stop stop-color="white"/>
<stop offset="0.223958" stop-color="#5F3CA8"/>
<stop offset="0.623188" stop-color="#371B73" stop-opacity="0.6"/>
<stop offset="1" stop-color="#0A1153" stop-opacity="0.4"/>
</linearGradient>
<linearGradient id="paint2_linear_1_3" x1="274.36" y1="292.113" x2="274.36" y2="353.305" gradientUnits="userSpaceOnUse">
<stop stop-color="white"/>
<stop offset="0.223958" stop-color="#5F3CA8"/>
<stop offset="0.623188" stop-color="#371B73" stop-opacity="0.6"/>
<stop offset="1" stop-color="#0A1153" stop-opacity="0.4"/>
</linearGradient>
<radialGradient id="paint3_radial_1_3" cx="0" cy="0" r="1" gradientUnits="userSpaceOnUse" gradientTransform="translate(170 177.062) rotate(90) scale(177.062 170)">
<stop stop-color="#FF65C1"/>
<stop offset="1" stop-color="#FF65C1" stop-opacity="0"/>
</radialGradient>
<linearGradient id="paint4_linear_1_3" x1="204.968" y1="150.321" x2="204.968" y2="283.242" gradientUnits="userSpaceOnUse">
<stop stop-color="#13154D"/>
<stop offset="1" stop-color="#8E92EE" stop-opacity="0"/>
</linearGradient>
<linearGradient id="paint5_linear_1_3" x1="255.556" y1="225.16" x2="261.805" y2="292.163" gradientUnits="userSpaceOnUse">
<stop stop-color="white" stop-opacity="0"/>
<stop offset="1" stop-color="white"/>
</linearGradient>
<radialGradient id="paint6_radial_1_3" cx="0" cy="0" r="1" gradientUnits="userSpaceOnUse" gradientTransform="translate(75.7468 203.769) rotate(-20.4144) scale(275.759 284.482)">
<stop offset="0.249306" stop-color="white"/>
<stop offset="0.48315" stop-color="#FF8FED" stop-opacity="0.5"/>
<stop offset="0.627037" stop-color="#220C7A" stop-opacity="0.5"/>
</radialGradient>
<linearGradient id="paint7_linear_1_3" x1="88.9415" y1="193.422" x2="328.627" y2="167.448" gradientUnits="userSpaceOnUse">
<stop stop-color="white"/>
<stop offset="1" stop-color="#12178E" stop-opacity="0.4"/>
</linearGradient>
<linearGradient id="paint8_linear_1_3" x1="225.025" y1="286.664" x2="184.078" y2="192.87" gradientUnits="userSpaceOnUse">
<stop offset="0.0011346" stop-color="white"/>
<stop offset="1" stop-color="white" stop-opacity="0"/>
</linearGradient>
<radialGradient id="paint9_radial_1_3" cx="0" cy="0" r="1" gradientUnits="userSpaceOnUse" gradientTransform="translate(132.572 205.433) rotate(-15.4373) scale(190.182 196.985)">
<stop offset="0.239373" stop-color="white"/>
<stop offset="0.410099" stop-color="#FFCEF1"/>
<stop offset="0.67492" stop-color="#B6B9FF"/>
<stop offset="0.861176" stop-color="#FFA8E7"/>
<stop offset="1" stop-color="white"/>
</radialGradient>
<radialGradient id="paint10_radial_1_3" cx="0" cy="0" r="1" gradientUnits="userSpaceOnUse" gradientTransform="translate(295.647 231.866) rotate(-120.69) scale(112.348 110.25)">
<stop stop-color="#3F52FF"/>
<stop offset="1" stop-color="#3F52FF" stop-opacity="0"/>
</radialGradient>
<linearGradient id="paint11_linear_1_3" x1="82.6104" y1="124.088" x2="330.034" y2="131.468" gradientUnits="userSpaceOnUse">
<stop stop-color="white"/>
<stop offset="1" stop-color="#5653FF" stop-opacity="0.2"/>
</linearGradient>
<linearGradient id="paint12_linear_1_3" x1="188.5" y1="257.562" x2="180.069" y2="134.944" gradientUnits="userSpaceOnUse">
<stop stop-color="white"/>
<stop offset="1" stop-color="white" stop-opacity="0"/>
</linearGradient>
<linearGradient id="paint13_linear_1_3" x1="204.966" y1="25.114" x2="204.966" y2="155.766" gradientUnits="userSpaceOnUse">
<stop stop-color="#13154D" stop-opacity="0.5"/>
<stop offset="1" stop-color="#8E92EE" stop-opacity="0"/>
</linearGradient>
<linearGradient id="paint14_linear_1_3" x1="221.926" y1="184.131" x2="235.878" y2="39.7623" gradientUnits="userSpaceOnUse">
<stop stop-color="white"/>
<stop offset="1" stop-color="white" stop-opacity="0"/>
</linearGradient>
<linearGradient id="paint15_linear_1_3" x1="204.968" y1="25.114" x2="204.968" y2="110.387" gradientUnits="userSpaceOnUse">
<stop stop-color="#13154D"/>
<stop offset="1" stop-color="#8E92EE" stop-opacity="0"/>
</linearGradient>
<linearGradient id="paint16_linear_1_3" x1="229.133" y1="173.123" x2="202.981" y2="25.4659" gradientUnits="userSpaceOnUse">
<stop stop-color="white"/>
<stop offset="1" stop-color="white" stop-opacity="0"/>
</linearGradient>
<linearGradient id="paint17_linear_1_3" x1="204.967" y1="28.1364" x2="204.967" y2="78.2541" gradientUnits="userSpaceOnUse">
<stop stop-color="#13154D"/>
<stop offset="1" stop-color="#8E92EE" stop-opacity="0"/>
</linearGradient>
<linearGradient id="paint18_linear_1_3" x1="223.848" y1="131.094" x2="203.427" y2="28.4428" gradientUnits="userSpaceOnUse">
<stop stop-color="white"/>
<stop offset="1" stop-color="white" stop-opacity="0"/>
</linearGradient>
<radialGradient id="paint19_radial_1_3" cx="0" cy="0" r="1" gradientUnits="userSpaceOnUse" gradientTransform="translate(75.7468 203.769) rotate(-20.4144) scale(275.759 284.482)">
<stop offset="0.249306" stop-color="white"/>
<stop offset="0.48315" stop-color="#FF8FED" stop-opacity="0.5"/>
<stop offset="0.627037" stop-color="#220C7A" stop-opacity="0"/>
</radialGradient>
</defs>
</svg>
