<svg width="48" height="48" viewBox="0 0 48 48" fill="none" xmlns="http://www.w3.org/2000/svg">
<circle cx="24" cy="24" r="20" fill="#7A658E"/>
<path fill-rule="evenodd" clip-rule="evenodd" d="M17.968 16H30.032C30.4706 16 30.8491 16 31.1624 16.0214C31.4922 16.0439 31.8221 16.0934 32.1481 16.2284C32.8831 16.5328 33.4672 17.1169 33.7716 17.852C33.9066 18.1779 33.9561 18.5078 33.9787 18.8376C34 19.1509 34 19.5294 34 19.968V28.032C34 28.4706 34 28.8491 33.9787 29.1624C33.9561 29.4922 33.9066 29.8221 33.7716 30.1481C33.4672 30.8831 32.8831 31.4672 32.1481 31.7716C31.8221 31.9066 31.4922 31.9561 31.1624 31.9787C30.8491 32 30.4706 32 30.032 32H17.968C17.5294 32 17.1509 32 16.8376 31.9787C16.5078 31.9561 16.1779 31.9066 15.852 31.7716C15.1169 31.4672 14.5328 30.8831 14.2284 30.1481C14.0934 29.8221 14.0439 29.4922 14.0214 29.1624C14 28.8491 14 28.4706 14 28.032V19.968C14 19.5294 14 19.1509 14.0214 18.8376C14.0439 18.5078 14.0934 18.1779 14.2284 17.852C14.5328 17.1169 15.1169 16.5328 15.852 16.2284C16.1779 16.0934 16.5078 16.0439 16.8376 16.0214C17.1509 16 17.5294 16 17.968 16ZM16.3177 18.2775C16.6814 17.8619 17.3132 17.8198 17.7288 18.1835L23.3418 23.0948C23.7188 23.4247 24.2818 23.4247 24.6588 23.0948L30.2717 18.1835C30.6874 17.8198 31.3191 17.8619 31.6828 18.2775C32.0465 18.6932 32.0044 19.3249 31.5888 19.6886L25.9758 24.6C24.8447 25.5896 23.1558 25.5896 22.0248 24.6L16.4118 19.6886C15.9962 19.3249 15.9541 18.6932 16.3177 18.2775Z" fill="white"/>
</svg>
