<svg width="981" height="413" viewBox="0 0 981 413" fill="none" xmlns="http://www.w3.org/2000/svg">
<path d="M134.905 77C125.305 77 119.305 82.1112 116.905 92.3327C120.505 87.2215 124.705 85.3055 129.505 86.5828C132.244 87.3116 134.201 89.428 136.368 91.7698C139.898 95.5845 143.983 99.9995 152.906 99.9995C162.505 99.9995 168.506 94.8883 170.905 84.6659C167.306 89.7771 163.106 91.694 158.305 90.4167C155.567 89.6879 153.61 87.5715 151.443 85.2297C147.913 81.415 143.828 77 134.905 77V77ZM116.905 99.9995C107.306 99.9995 101.305 105.111 98.9054 115.333C102.505 110.222 106.705 108.305 111.506 109.583C114.244 110.313 116.201 112.429 118.368 114.769C121.897 118.584 125.983 123 134.905 123C144.506 123 150.506 117.889 152.906 107.666C149.305 112.778 145.105 114.695 140.306 113.416C137.567 112.688 135.609 110.571 133.442 108.23C129.913 104.415 125.828 99.9995 116.905 99.9995V99.9995Z" fill="#7D5FBB"/>
<g filter="url(#filter0_dd_125_81)">
<path d="M865.095 192.862C855.824 204.505 838.104 204.411 828.957 192.669L761.628 106.231C749.827 91.0811 760.692 68.9953 779.896 69.0979L915.475 69.8227C934.679 69.9254 945.308 92.1261 933.345 107.149L865.095 192.862Z" fill="url(#paint0_linear_125_81)" fill-opacity="0.11" shape-rendering="crispEdges"/>
<path d="M865.095 192.862C855.824 204.505 838.104 204.411 828.957 192.669L761.628 106.231C749.827 91.0811 760.692 68.9953 779.896 69.0979L915.475 69.8227C934.679 69.9254 945.308 92.1261 933.345 107.149L865.095 192.862Z" stroke="#945DCB" stroke-opacity="0.58" shape-rendering="crispEdges"/>
<path d="M865.095 192.862C855.824 204.505 838.104 204.411 828.957 192.669L761.628 106.231C749.827 91.0811 760.692 68.9953 779.896 69.0979L915.475 69.8227C934.679 69.9254 945.308 92.1261 933.345 107.149L865.095 192.862Z" stroke="#2954A3" stroke-opacity="0.3" shape-rendering="crispEdges"/>
<path d="M865.095 192.862C855.824 204.505 838.104 204.411 828.957 192.669L761.628 106.231C749.827 91.0811 760.692 68.9953 779.896 69.0979L915.475 69.8227C934.679 69.9254 945.308 92.1261 933.345 107.149L865.095 192.862Z" stroke="#C961DE" stroke-opacity="0.3" shape-rendering="crispEdges"/>
</g>
<g filter="url(#filter1_dd_125_81)">
<path d="M618.189 367.862C608.918 379.505 591.198 379.411 582.052 367.669L514.722 281.231C502.921 266.081 513.786 243.995 532.99 244.098L668.57 244.823C687.774 244.925 698.402 267.126 686.439 282.149L618.189 367.862Z" fill="url(#paint1_linear_125_81)" fill-opacity="0.11" shape-rendering="crispEdges"/>
<path d="M618.189 367.862C608.918 379.505 591.198 379.411 582.052 367.669L514.722 281.231C502.921 266.081 513.786 243.995 532.99 244.098L668.57 244.823C687.774 244.925 698.402 267.126 686.439 282.149L618.189 367.862Z" stroke="#945DCB" stroke-opacity="0.58" shape-rendering="crispEdges"/>
<path d="M618.189 367.862C608.918 379.505 591.198 379.411 582.052 367.669L514.722 281.231C502.921 266.081 513.786 243.995 532.99 244.098L668.57 244.823C687.774 244.925 698.402 267.126 686.439 282.149L618.189 367.862Z" stroke="#2954A3" stroke-opacity="0.3" shape-rendering="crispEdges"/>
<path d="M618.189 367.862C608.918 379.505 591.198 379.411 582.052 367.669L514.722 281.231C502.921 266.081 513.786 243.995 532.99 244.098L668.57 244.823C687.774 244.925 698.402 267.126 686.439 282.149L618.189 367.862Z" stroke="#C961DE" stroke-opacity="0.3" shape-rendering="crispEdges"/>
</g>
<g filter="url(#filter2_dd_125_81)">
<path d="M656.608 53.4592C665.87 41.8081 683.59 41.8877 692.746 53.6216L760.149 140.002C771.964 155.142 761.117 177.237 741.913 177.151L606.333 176.542C587.129 176.455 576.482 154.264 588.431 139.23L656.608 53.4592Z" fill="url(#paint2_linear_125_81)" fill-opacity="0.11" shape-rendering="crispEdges"/>
<path d="M656.608 53.4592C665.87 41.8081 683.59 41.8877 692.746 53.6216L760.149 140.002C771.964 155.142 761.117 177.237 741.913 177.151L606.333 176.542C587.129 176.455 576.482 154.264 588.431 139.23L656.608 53.4592Z" stroke="#945DCB" stroke-opacity="0.58" shape-rendering="crispEdges"/>
<path d="M656.608 53.4592C665.87 41.8081 683.59 41.8877 692.746 53.6216L760.149 140.002C771.964 155.142 761.117 177.237 741.913 177.151L606.333 176.542C587.129 176.455 576.482 154.264 588.431 139.23L656.608 53.4592Z" stroke="#2954A3" stroke-opacity="0.3" shape-rendering="crispEdges"/>
<path d="M656.608 53.4592C665.87 41.8081 683.59 41.8877 692.746 53.6216L760.149 140.002C771.964 155.142 761.117 177.237 741.913 177.151L606.333 176.542C587.129 176.455 576.482 154.264 588.431 139.23L656.608 53.4592Z" stroke="#C961DE" stroke-opacity="0.3" shape-rendering="crispEdges"/>
</g>
<g filter="url(#filter3_dd_125_81)">
<path d="M414.703 239.459C423.964 227.808 441.685 227.888 450.841 239.622L518.244 326.002C530.058 341.142 519.212 363.237 500.008 363.151L364.427 362.542C345.224 362.455 334.576 340.264 346.526 325.23L414.703 239.459Z" fill="url(#paint3_linear_125_81)" fill-opacity="0.11" shape-rendering="crispEdges"/>
<path d="M414.703 239.459C423.964 227.808 441.685 227.888 450.841 239.622L518.244 326.002C530.058 341.142 519.212 363.237 500.008 363.151L364.427 362.542C345.224 362.455 334.576 340.264 346.526 325.23L414.703 239.459Z" stroke="#945DCB" stroke-opacity="0.58" shape-rendering="crispEdges"/>
<path d="M414.703 239.459C423.964 227.808 441.685 227.888 450.841 239.622L518.244 326.002C530.058 341.142 519.212 363.237 500.008 363.151L364.427 362.542C345.224 362.455 334.576 340.264 346.526 325.23L414.703 239.459Z" stroke="#2954A3" stroke-opacity="0.3" shape-rendering="crispEdges"/>
<path d="M414.703 239.459C423.964 227.808 441.685 227.888 450.841 239.622L518.244 326.002C530.058 341.142 519.212 363.237 500.008 363.151L364.427 362.542C345.224 362.455 334.576 340.264 346.526 325.23L414.703 239.459Z" stroke="#C961DE" stroke-opacity="0.3" shape-rendering="crispEdges"/>
</g>
<path d="M712.529 116.159L680.656 83.4144C678.822 81.5285 675.845 81.5285 674.008 83.4144L667.39 90.2143L675.785 98.8404C677.737 98.163 679.974 98.6174 681.529 100.215C683.092 101.823 683.531 104.142 682.856 106.153L690.947 114.466C692.905 113.773 695.163 114.222 696.727 115.831C698.912 118.075 698.912 121.712 696.727 123.958C694.541 126.204 691.001 126.204 688.814 123.958C687.17 122.267 686.764 119.787 687.596 117.707L680.051 109.954L680.05 130.356C680.597 130.634 681.096 131.001 681.529 131.443C683.714 133.687 683.714 137.325 681.529 139.572C679.343 141.817 675.801 141.817 673.619 139.572C671.434 137.325 671.434 133.687 673.619 131.443C674.143 130.905 674.765 130.479 675.45 130.189V109.597C674.764 109.309 674.141 108.883 673.619 108.343C671.963 106.644 671.565 104.148 672.414 102.06L664.137 93.5554L642.283 116.007C640.446 117.895 640.446 120.954 642.283 122.84L674.156 155.585C675.991 157.472 678.967 157.472 680.805 155.585L712.529 122.992C714.364 121.106 714.365 118.045 712.529 116.159Z" fill="#7D5FBB"/>
<g filter="url(#filter4_dd_125_81)">
<path d="M523.095 185.862C513.824 197.505 496.103 197.411 486.957 185.669L419.628 99.2314C407.826 84.0811 418.692 61.9953 437.895 62.0979L573.475 62.8227C592.679 62.9254 603.307 85.1261 591.345 100.149L523.095 185.862Z" fill="url(#paint4_linear_125_81)" fill-opacity="0.11" shape-rendering="crispEdges"/>
<path d="M523.095 185.862C513.824 197.505 496.103 197.411 486.957 185.669L419.628 99.2314C407.826 84.0811 418.692 61.9953 437.895 62.0979L573.475 62.8227C592.679 62.9254 603.307 85.1261 591.345 100.149L523.095 185.862Z" stroke="#945DCB" stroke-opacity="0.58" shape-rendering="crispEdges"/>
<path d="M523.095 185.862C513.824 197.505 496.103 197.411 486.957 185.669L419.628 99.2314C407.826 84.0811 418.692 61.9953 437.895 62.0979L573.475 62.8227C592.679 62.9254 603.307 85.1261 591.345 100.149L523.095 185.862Z" stroke="#2954A3" stroke-opacity="0.3" shape-rendering="crispEdges"/>
<path d="M523.095 185.862C513.824 197.505 496.103 197.411 486.957 185.669L419.628 99.2314C407.826 84.0811 418.692 61.9953 437.895 62.0979L573.475 62.8227C592.679 62.9254 603.307 85.1261 591.345 100.149L523.095 185.862Z" stroke="#C961DE" stroke-opacity="0.3" shape-rendering="crispEdges"/>
</g>
<path d="M537.902 100.816C537.902 99.7398 537.647 98.7889 537.132 97.973C536.626 97.1703 535.869 96.4976 534.853 95.9658C526.466 91.5947 518.07 87.2369 509.686 82.8613C507.426 81.6818 505.234 81.725 502.991 82.9215C499.652 84.7008 482.939 93.3559 477.958 95.9633C475.907 97.0368 474.909 98.6793 474.909 100.814C474.905 109.605 474.909 118.395 474.905 127.186C474.905 128.238 475.15 129.171 475.642 129.975C476.148 130.801 476.916 131.492 477.956 132.036C482.936 134.644 499.652 143.298 502.99 145.078C505.234 146.275 507.426 146.318 509.687 145.138C518.071 140.763 526.467 136.405 534.855 132.034C535.895 131.49 536.663 130.798 537.169 129.972C537.66 129.168 537.905 128.236 537.905 127.183C537.905 127.183 537.905 109.607 537.902 100.816Z" fill="#A179DC"/>
<path d="M506.502 113.914L475.642 129.974C476.148 130.801 476.916 131.492 477.956 132.036C482.936 134.644 499.652 143.298 502.99 145.078C505.234 146.275 507.426 146.318 509.687 145.138C518.072 140.762 526.467 136.405 534.855 132.034C535.895 131.49 536.663 130.798 537.169 129.972L506.502 113.914Z" fill="#7D5FBB"/>
<path d="M537.902 100.816C537.902 99.7398 537.647 98.7889 537.132 97.973L506.502 113.914L537.169 129.972C537.661 129.169 537.905 128.236 537.905 127.183C537.905 127.183 537.905 109.607 537.902 100.816" fill="#7D5FBB"/>
<path d="M524.671 107.91V110.912H527.992V107.91H529.653V110.912H532.974V112.413H529.653V115.415H532.974V116.916H529.653V119.918H527.992V116.916H524.671V119.918H523.01V116.916H519.689V115.415H523.01V112.413H519.689V110.912H523.01V107.91H524.671ZM527.992 112.413H524.671V115.415H527.992V112.413Z" fill="white"/>
<path d="M506.569 92.8339C515.232 92.8339 522.796 97.0863 526.847 103.407L526.807 103.346L516.615 108.651C514.607 105.578 510.926 103.504 506.702 103.461L506.569 103.46C500.129 103.46 494.909 108.179 494.909 114C494.907 115.834 495.437 117.637 496.447 119.229C498.457 122.4 502.235 124.54 506.569 124.54C510.931 124.54 514.731 122.373 516.73 119.168L516.682 119.245L526.859 124.574C522.852 130.841 515.392 135.08 506.83 135.165L506.569 135.166C497.879 135.166 490.295 130.887 486.254 124.533C484.281 121.431 483.152 117.835 483.152 114C483.152 102.31 493.636 92.8337 506.569 92.8337L506.569 92.8339Z" fill="white"/>
<g filter="url(#filter5_dd_125_81)">
<path d="M304.258 39.2395C313.699 27.7336 331.416 28.0884 340.389 39.963L406.443 127.38C418.02 142.701 406.832 164.625 387.632 164.241L252.078 161.526C232.877 161.142 222.576 138.787 234.758 123.941L304.258 39.2395Z" fill="url(#paint5_linear_125_81)" fill-opacity="0.11" shape-rendering="crispEdges"/>
<path d="M304.258 39.2395C313.699 27.7336 331.416 28.0884 340.389 39.963L406.443 127.38C418.02 142.701 406.832 164.625 387.632 164.241L252.078 161.526C232.877 161.142 222.576 138.787 234.758 123.941L304.258 39.2395Z" stroke="#945DCB" stroke-opacity="0.58" shape-rendering="crispEdges"/>
<path d="M304.258 39.2395C313.699 27.7336 331.416 28.0884 340.389 39.963L406.443 127.38C418.02 142.701 406.832 164.625 387.632 164.241L252.078 161.526C232.877 161.142 222.576 138.787 234.758 123.941L304.258 39.2395Z" stroke="#2954A3" stroke-opacity="0.3" shape-rendering="crispEdges"/>
<path d="M304.258 39.2395C313.699 27.7336 331.416 28.0884 340.389 39.963L406.443 127.38C418.02 142.701 406.832 164.625 387.632 164.241L252.078 161.526C232.877 161.142 222.576 138.787 234.758 123.941L304.258 39.2395Z" stroke="#C961DE" stroke-opacity="0.3" shape-rendering="crispEdges"/>
</g>
<path d="M320.905 116.995C324.508 116.995 327.428 114.311 327.428 111C327.428 107.689 324.508 105.005 320.905 105.005C317.303 105.005 314.383 107.689 314.383 111C314.383 114.311 317.303 116.995 320.905 116.995Z" fill="#7D5FBB"/>
<path d="M320.905 123.283C340.235 123.283 355.905 117.783 355.905 111C355.905 104.217 340.235 98.7175 320.905 98.7175C301.575 98.7175 285.905 104.217 285.905 111C285.905 117.783 301.575 123.283 320.905 123.283Z" stroke="#7D5FBB" stroke-width="5"/>
<path d="M309.332 117.141C318.997 132.527 332.014 142.25 338.405 138.859C344.797 135.467 342.144 120.245 332.479 104.859C322.814 89.4728 309.797 79.7495 303.405 83.1413C297.014 86.533 299.667 101.755 309.332 117.141Z" stroke="#7D5FBB" stroke-width="5"/>
<path d="M309.332 104.859C299.667 120.245 297.014 135.467 303.405 138.859C309.797 142.25 322.814 132.527 332.479 117.141C342.144 101.755 344.797 86.533 338.405 83.1413C332.014 79.7495 318.997 89.4728 309.332 104.859Z" stroke="#7D5FBB" stroke-width="5"/>
<g filter="url(#filter6_dd_125_81)">
<path d="M151.478 174.9C142.049 186.415 124.331 186.078 115.347 174.213L49.2058 86.8619C37.613 71.5516 48.7793 49.6165 67.98 49.9819L203.537 52.5615C222.738 52.9269 233.061 75.271 220.894 90.1291L151.478 174.9Z" fill="url(#paint6_linear_125_81)" fill-opacity="0.11" shape-rendering="crispEdges"/>
<path d="M151.478 174.9C142.049 186.415 124.331 186.078 115.347 174.213L49.2058 86.8619C37.613 71.5516 48.7793 49.6165 67.98 49.9819L203.537 52.5615C222.738 52.9269 233.061 75.271 220.894 90.1291L151.478 174.9Z" stroke="#945DCB" stroke-opacity="0.58" shape-rendering="crispEdges"/>
<path d="M151.478 174.9C142.049 186.415 124.331 186.078 115.347 174.213L49.2058 86.8619C37.613 71.5516 48.7793 49.6165 67.98 49.9819L203.537 52.5615C222.738 52.9269 233.061 75.271 220.894 90.1291L151.478 174.9Z" stroke="#2954A3" stroke-opacity="0.3" shape-rendering="crispEdges"/>
<path d="M151.478 174.9C142.049 186.415 124.331 186.078 115.347 174.213L49.2058 86.8619C37.613 71.5516 48.7793 49.6165 67.98 49.9819L203.537 52.5615C222.738 52.9269 233.061 75.271 220.894 90.1291L151.478 174.9Z" stroke="#C961DE" stroke-opacity="0.3" shape-rendering="crispEdges"/>
</g>
<path d="M878 88H815V152H878V88Z" fill="#7D5FBB"/>
<path d="M857.79 136.295C859.013 138.333 860.604 139.831 863.417 139.831C865.78 139.831 867.29 138.625 867.29 136.959C867.29 134.962 865.739 134.254 863.137 133.093L861.712 132.468C857.596 130.678 854.862 128.435 854.862 123.693C854.862 119.325 858.121 116 863.214 116C866.841 116 869.448 117.289 871.326 120.663L866.885 123.575C865.907 121.784 864.852 121.079 863.214 121.079C861.544 121.079 860.485 122.161 860.485 123.575C860.485 125.322 861.545 126.029 863.992 127.111L865.418 127.735C870.264 129.857 873 132.02 873 136.884C873 142.127 868.966 145 863.549 145C858.252 145 854.83 142.423 853.155 139.044L857.79 136.295ZM837.643 136.799C838.539 138.423 839.354 139.795 841.313 139.795C843.187 139.795 844.369 139.046 844.369 136.135V116.333H850.073V136.214C850.073 142.245 846.61 144.989 841.556 144.989C836.989 144.989 834.345 142.576 833 139.67L837.643 136.799Z" fill="#171023"/>
<path d="M408.5 302.5H468.5L439.75 332.5H408.5V302.5Z" fill="url(#paint7_linear_125_81)"/>
<path d="M410.323 316.13C409.836 315.196 409.696 314.196 409.767 313.158C409.873 312.195 410.242 311.336 410.795 310.551C410.866 310.451 410.958 310.364 411.04 310.271C412.102 309.178 413.426 308.58 414.885 308.238C416.204 308 417.527 308.001 418.853 308.176C420.401 308.429 421.916 308.796 423.331 309.499C423.418 309.543 423.499 309.6 423.583 309.651C423.132 310.439 422.683 311.227 422.232 312.016C422.081 312.264 421.9 312.5 421.788 312.765C421.64 313.115 421.464 313.111 421.152 312.958C419.667 312.229 418.096 311.893 416.439 312.015C415.927 312.052 415.434 312.173 415.029 312.514C414.571 312.9 414.545 313.368 414.955 313.797C415.077 313.924 415.213 314.043 415.361 314.139C416.132 314.639 416.972 314.985 417.856 315.225C417.984 315.274 418.111 315.328 418.241 315.373C419.195 315.701 420.154 316.013 421.042 316.503C422.242 317.166 423.216 318.029 423.626 319.4C423.668 319.54 423.64 319.709 423.796 319.836C424.377 318.267 424.955 316.708 425.532 315.15C425.878 314.241 426.223 313.331 426.572 312.423C426.623 312.291 426.655 312.159 426.649 312.018C426.732 311.994 426.761 311.924 426.787 311.852C427.055 311.123 427.323 310.393 427.592 309.664C427.684 309.429 427.776 309.195 427.868 308.96C428.101 308.357 428.1 308.357 428.769 308.357C430.126 308.357 431.482 308.362 432.839 308.353C433.061 308.351 433.184 308.405 433.252 308.63C433.35 308.957 433.487 309.271 433.608 309.59C433.927 310.449 434.247 311.308 434.567 312.168C435.028 313.543 435.536 314.901 436.061 316.253C436.758 318.174 437.454 320.094 438.151 322.015C438.172 322.007 438.193 321.998 438.216 321.989C438.216 320.036 438.216 318.082 438.216 316.13C438.216 314.808 438.216 313.488 438.216 312.167C438.216 311.304 438.216 310.44 438.216 309.576C438.22 309.26 438.233 308.943 438.227 308.626C438.223 308.447 438.251 308.351 438.469 308.353C440.637 308.366 442.806 308.325 444.972 308.389C446.531 308.436 448.075 308.663 449.487 309.42C449.831 309.604 450.127 309.855 450.463 310.047C451.252 310.775 451.768 311.663 452.037 312.699C452.257 313.707 452.306 314.723 452.187 315.747C451.991 316.911 451.555 317.964 450.757 318.85C449.561 320.035 448.085 320.598 446.441 320.788C446.392 320.793 446.346 320.818 446.299 320.834C445.336 320.846 444.374 320.861 443.411 320.866C443.221 320.867 443.106 320.886 443.109 321.127C443.126 322.102 443.125 323.076 443.132 324.051C443.125 324.749 443.109 325.446 443.12 326.144C443.124 326.401 443.06 326.49 442.785 326.489C440.094 326.479 437.403 326.477 434.711 326.491C434.477 326.493 434.405 326.391 434.353 326.217C434.143 325.512 433.931 324.808 433.73 324.1C433.668 323.88 433.602 323.807 433.341 323.881C431.491 324.407 429.634 324.399 427.786 323.865C427.548 323.796 427.458 323.825 427.381 324.07C427.15 324.802 426.883 325.522 426.65 326.253C426.598 326.416 426.536 326.484 426.368 326.484C424.694 326.481 423.02 326.483 421.308 326.483C421.473 326.019 421.627 325.586 421.778 325.162C421.644 325.089 421.59 325.16 421.534 325.203C419.77 326.543 417.744 326.889 415.597 326.76C414.052 326.668 412.57 326.304 411.138 325.717C410.732 325.55 410.355 325.332 409.965 325.139C409.857 325.086 409.758 325.036 409.797 324.888C410.376 323.868 410.861 322.801 411.374 321.747C411.493 321.502 411.578 321.452 411.824 321.604C413.258 322.487 414.817 322.912 416.507 322.825C416.99 322.799 417.469 322.745 417.901 322.504C418.602 322.113 418.832 321.322 418.417 320.753C418.146 320.353 417.723 320.167 417.298 320.012C416.288 319.644 415.267 319.307 414.254 318.948C413.909 318.826 413.576 318.671 413.237 318.531C412.567 318.173 411.903 317.81 411.327 317.306C410.934 316.965 410.617 316.557 410.323 316.13ZM429.547 317.349C429.295 318.118 429.048 318.889 428.79 319.657C428.724 319.852 428.799 319.923 428.978 319.978C430.052 320.309 431.123 320.301 432.197 319.981C432.365 319.932 432.418 319.87 432.359 319.69C432.111 318.933 431.877 318.172 431.636 317.412C431.3 316.309 430.963 315.207 430.627 314.105C430.599 314.11 430.571 314.116 430.542 314.121C430.21 315.197 429.879 316.273 429.547 317.349ZM443.129 313.692C443.124 314.667 443.122 315.643 443.109 316.619C443.106 316.822 443.181 316.88 443.375 316.877C444.008 316.87 444.644 316.896 445.274 316.809C446.864 316.591 447.824 315.586 447.35 313.692C447.111 312.901 446.506 312.53 445.765 312.327C444.96 312.107 444.134 312.183 443.314 312.168C443.135 312.165 443.109 312.257 443.112 312.404C443.121 312.833 443.124 313.263 443.129 313.692Z" fill="white"/>
<path fill-rule="evenodd" clip-rule="evenodd" d="M587.845 281.843L589.798 279.911C591.207 278.401 591.806 277.456 592.575 275.599L591.206 276.235L586.403 279.439L580.002 283.494C575.27 286.662 573.593 288.787 571.04 292.731C566.975 302.53 567.548 307.865 572.767 317.069C578.99 328.017 593.404 332.023 593.891 331.85C606.516 333.77 613.319 332.582 623.779 324.6C630.963 317.557 633.374 312.769 634.493 302.572C634.63 294.752 633.51 290.005 628.535 282.727C623.543 277.549 620.018 274.963 611.677 271.25L601.953 266.366C602.132 267.835 602.679 268.821 603.727 270.112C610.729 274.337 614.845 277.173 619.436 282.226C625.91 290.114 623.111 296.227 619.935 298.765C616.76 301.304 612.677 299.556 612.677 299.556L614.949 296.039C615.362 295.411 616.512 292.131 615.935 292.793C615.358 293.455 612.285 294.49 612.285 294.49C613.176 291.737 613.088 290.082 612.833 287.114C611.318 288.874 610.222 289.724 607.795 290.966L607.426 284.448C605.836 287.466 604.416 288.84 601.221 290.894C596.502 293.537 594.284 294.906 590.5 298C589.112 300.156 589.436 302.271 589.66 302.491C590.57 301.936 591.079 301.664 591.978 301.431C594.14 301.416 595.227 301.603 595.901 302.34C599.559 305.446 599.295 309.133 592.377 311.854C585.459 314.576 579.24 303.94 579.292 303.462C579.343 302.984 576.924 295.757 579.331 291.52C581.538 287.192 583.471 285.06 587.845 281.843ZM597.431 296.87C596.798 295.981 594.71 298.203 594.71 298.203C594.398 298.531 594.197 298.447 594.541 298.775C594.64 298.711 596.318 298.79 597.262 298.774C597.888 298.593 598.063 297.76 597.431 296.87Z" fill="#7D5FBB"/>
<defs>
<filter id="filter0_dd_125_81" x="752.228" y="68.5976" width="190.667" height="141.438" filterUnits="userSpaceOnUse" color-interpolation-filters="sRGB">
<feFlood flood-opacity="0" result="BackgroundImageFix"/>
<feColorMatrix in="SourceAlpha" type="matrix" values="0 0 0 0 0 0 0 0 0 0 0 0 0 0 0 0 0 0 127 0" result="hardAlpha"/>
<feOffset dy="4"/>
<feGaussianBlur stdDeviation="2"/>
<feComposite in2="hardAlpha" operator="out"/>
<feColorMatrix type="matrix" values="0 0 0 0 0 0 0 0 0 0 0 0 0 0 0 0 0 0 0.25 0"/>
<feBlend mode="normal" in2="BackgroundImageFix" result="effect1_dropShadow_125_81"/>
<feColorMatrix in="SourceAlpha" type="matrix" values="0 0 0 0 0 0 0 0 0 0 0 0 0 0 0 0 0 0 127 0" result="hardAlpha"/>
<feOffset dy="4"/>
<feGaussianBlur stdDeviation="2"/>
<feComposite in2="hardAlpha" operator="out"/>
<feColorMatrix type="matrix" values="0 0 0 0 0 0 0 0 0 0 0 0 0 0 0 0 0 0 0.25 0"/>
<feBlend mode="normal" in2="effect1_dropShadow_125_81" result="effect2_dropShadow_125_81"/>
<feBlend mode="normal" in="SourceGraphic" in2="effect2_dropShadow_125_81" result="shape"/>
</filter>
<filter id="filter1_dd_125_81" x="505.323" y="243.598" width="190.667" height="141.438" filterUnits="userSpaceOnUse" color-interpolation-filters="sRGB">
<feFlood flood-opacity="0" result="BackgroundImageFix"/>
<feColorMatrix in="SourceAlpha" type="matrix" values="0 0 0 0 0 0 0 0 0 0 0 0 0 0 0 0 0 0 127 0" result="hardAlpha"/>
<feOffset dy="4"/>
<feGaussianBlur stdDeviation="2"/>
<feComposite in2="hardAlpha" operator="out"/>
<feColorMatrix type="matrix" values="0 0 0 0 0 0 0 0 0 0 0 0 0 0 0 0 0 0 0.25 0"/>
<feBlend mode="normal" in2="BackgroundImageFix" result="effect1_dropShadow_125_81"/>
<feColorMatrix in="SourceAlpha" type="matrix" values="0 0 0 0 0 0 0 0 0 0 0 0 0 0 0 0 0 0 127 0" result="hardAlpha"/>
<feOffset dy="4"/>
<feGaussianBlur stdDeviation="2"/>
<feComposite in2="hardAlpha" operator="out"/>
<feColorMatrix type="matrix" values="0 0 0 0 0 0 0 0 0 0 0 0 0 0 0 0 0 0 0.25 0"/>
<feBlend mode="normal" in2="effect1_dropShadow_125_81" result="effect2_dropShadow_125_81"/>
<feBlend mode="normal" in="SourceGraphic" in2="effect2_dropShadow_125_81" result="shape"/>
</filter>
<filter id="filter2_dd_125_81" x="578.893" y="44.2708" width="190.668" height="141.38" filterUnits="userSpaceOnUse" color-interpolation-filters="sRGB">
<feFlood flood-opacity="0" result="BackgroundImageFix"/>
<feColorMatrix in="SourceAlpha" type="matrix" values="0 0 0 0 0 0 0 0 0 0 0 0 0 0 0 0 0 0 127 0" result="hardAlpha"/>
<feOffset dy="4"/>
<feGaussianBlur stdDeviation="2"/>
<feComposite in2="hardAlpha" operator="out"/>
<feColorMatrix type="matrix" values="0 0 0 0 0 0 0 0 0 0 0 0 0 0 0 0 0 0 0.25 0"/>
<feBlend mode="normal" in2="BackgroundImageFix" result="effect1_dropShadow_125_81"/>
<feColorMatrix in="SourceAlpha" type="matrix" values="0 0 0 0 0 0 0 0 0 0 0 0 0 0 0 0 0 0 127 0" result="hardAlpha"/>
<feOffset dy="4"/>
<feGaussianBlur stdDeviation="2"/>
<feComposite in2="hardAlpha" operator="out"/>
<feColorMatrix type="matrix" values="0 0 0 0 0 0 0 0 0 0 0 0 0 0 0 0 0 0 0.25 0"/>
<feBlend mode="normal" in2="effect1_dropShadow_125_81" result="effect2_dropShadow_125_81"/>
<feBlend mode="normal" in="SourceGraphic" in2="effect2_dropShadow_125_81" result="shape"/>
</filter>
<filter id="filter3_dd_125_81" x="336.988" y="230.271" width="190.668" height="141.38" filterUnits="userSpaceOnUse" color-interpolation-filters="sRGB">
<feFlood flood-opacity="0" result="BackgroundImageFix"/>
<feColorMatrix in="SourceAlpha" type="matrix" values="0 0 0 0 0 0 0 0 0 0 0 0 0 0 0 0 0 0 127 0" result="hardAlpha"/>
<feOffset dy="4"/>
<feGaussianBlur stdDeviation="2"/>
<feComposite in2="hardAlpha" operator="out"/>
<feColorMatrix type="matrix" values="0 0 0 0 0 0 0 0 0 0 0 0 0 0 0 0 0 0 0.25 0"/>
<feBlend mode="normal" in2="BackgroundImageFix" result="effect1_dropShadow_125_81"/>
<feColorMatrix in="SourceAlpha" type="matrix" values="0 0 0 0 0 0 0 0 0 0 0 0 0 0 0 0 0 0 127 0" result="hardAlpha"/>
<feOffset dy="4"/>
<feGaussianBlur stdDeviation="2"/>
<feComposite in2="hardAlpha" operator="out"/>
<feColorMatrix type="matrix" values="0 0 0 0 0 0 0 0 0 0 0 0 0 0 0 0 0 0 0.25 0"/>
<feBlend mode="normal" in2="effect1_dropShadow_125_81" result="effect2_dropShadow_125_81"/>
<feBlend mode="normal" in="SourceGraphic" in2="effect2_dropShadow_125_81" result="shape"/>
</filter>
<filter id="filter4_dd_125_81" x="410.228" y="61.5976" width="190.667" height="141.438" filterUnits="userSpaceOnUse" color-interpolation-filters="sRGB">
<feFlood flood-opacity="0" result="BackgroundImageFix"/>
<feColorMatrix in="SourceAlpha" type="matrix" values="0 0 0 0 0 0 0 0 0 0 0 0 0 0 0 0 0 0 127 0" result="hardAlpha"/>
<feOffset dy="4"/>
<feGaussianBlur stdDeviation="2"/>
<feComposite in2="hardAlpha" operator="out"/>
<feColorMatrix type="matrix" values="0 0 0 0 0 0 0 0 0 0 0 0 0 0 0 0 0 0 0.25 0"/>
<feBlend mode="normal" in2="BackgroundImageFix" result="effect1_dropShadow_125_81"/>
<feColorMatrix in="SourceAlpha" type="matrix" values="0 0 0 0 0 0 0 0 0 0 0 0 0 0 0 0 0 0 127 0" result="hardAlpha"/>
<feOffset dy="4"/>
<feGaussianBlur stdDeviation="2"/>
<feComposite in2="hardAlpha" operator="out"/>
<feColorMatrix type="matrix" values="0 0 0 0 0 0 0 0 0 0 0 0 0 0 0 0 0 0 0.25 0"/>
<feBlend mode="normal" in2="effect1_dropShadow_125_81" result="effect2_dropShadow_125_81"/>
<feBlend mode="normal" in="SourceGraphic" in2="effect2_dropShadow_125_81" result="shape"/>
</filter>
<filter id="filter5_dd_125_81" x="224.996" y="30.3289" width="190.642" height="142.417" filterUnits="userSpaceOnUse" color-interpolation-filters="sRGB">
<feFlood flood-opacity="0" result="BackgroundImageFix"/>
<feColorMatrix in="SourceAlpha" type="matrix" values="0 0 0 0 0 0 0 0 0 0 0 0 0 0 0 0 0 0 127 0" result="hardAlpha"/>
<feOffset dy="4"/>
<feGaussianBlur stdDeviation="2"/>
<feComposite in2="hardAlpha" operator="out"/>
<feColorMatrix type="matrix" values="0 0 0 0 0 0 0 0 0 0 0 0 0 0 0 0 0 0 0.25 0"/>
<feBlend mode="normal" in2="BackgroundImageFix" result="effect1_dropShadow_125_81"/>
<feColorMatrix in="SourceAlpha" type="matrix" values="0 0 0 0 0 0 0 0 0 0 0 0 0 0 0 0 0 0 127 0" result="hardAlpha"/>
<feOffset dy="4"/>
<feGaussianBlur stdDeviation="2"/>
<feComposite in2="hardAlpha" operator="out"/>
<feColorMatrix type="matrix" values="0 0 0 0 0 0 0 0 0 0 0 0 0 0 0 0 0 0 0.25 0"/>
<feBlend mode="normal" in2="effect1_dropShadow_125_81" result="effect2_dropShadow_125_81"/>
<feBlend mode="normal" in="SourceGraphic" in2="effect2_dropShadow_125_81" result="shape"/>
</filter>
<filter id="filter6_dd_125_81" x="39.9966" y="49.4774" width="190.645" height="142.351" filterUnits="userSpaceOnUse" color-interpolation-filters="sRGB">
<feFlood flood-opacity="0" result="BackgroundImageFix"/>
<feColorMatrix in="SourceAlpha" type="matrix" values="0 0 0 0 0 0 0 0 0 0 0 0 0 0 0 0 0 0 127 0" result="hardAlpha"/>
<feOffset dy="4"/>
<feGaussianBlur stdDeviation="2"/>
<feComposite in2="hardAlpha" operator="out"/>
<feColorMatrix type="matrix" values="0 0 0 0 0 0 0 0 0 0 0 0 0 0 0 0 0 0 0.25 0"/>
<feBlend mode="normal" in2="BackgroundImageFix" result="effect1_dropShadow_125_81"/>
<feColorMatrix in="SourceAlpha" type="matrix" values="0 0 0 0 0 0 0 0 0 0 0 0 0 0 0 0 0 0 127 0" result="hardAlpha"/>
<feOffset dy="4"/>
<feGaussianBlur stdDeviation="2"/>
<feComposite in2="hardAlpha" operator="out"/>
<feColorMatrix type="matrix" values="0 0 0 0 0 0 0 0 0 0 0 0 0 0 0 0 0 0 0.25 0"/>
<feBlend mode="normal" in2="effect1_dropShadow_125_81" result="effect2_dropShadow_125_81"/>
<feBlend mode="normal" in="SourceGraphic" in2="effect2_dropShadow_125_81" result="shape"/>
</filter>
<linearGradient id="paint0_linear_125_81" x1="847.946" y1="20.711" x2="846.904" y2="215.708" gradientUnits="userSpaceOnUse">
<stop stop-color="#C961DE" stop-opacity="0"/>
<stop offset="0.624126" stop-color="#2954A3" stop-opacity="0.5"/>
<stop offset="1" stop-color="#945DCB"/>
</linearGradient>
<linearGradient id="paint1_linear_125_81" x1="601.04" y1="195.711" x2="599.998" y2="390.708" gradientUnits="userSpaceOnUse">
<stop stop-color="#C961DE" stop-opacity="0"/>
<stop offset="0.624126" stop-color="#2954A3" stop-opacity="0.5"/>
<stop offset="1" stop-color="#945DCB"/>
</linearGradient>
<linearGradient id="paint2_linear_125_81" x1="673.904" y1="225.596" x2="674.78" y2="30.5976" gradientUnits="userSpaceOnUse">
<stop stop-color="#C961DE" stop-opacity="0"/>
<stop offset="0.624126" stop-color="#2954A3" stop-opacity="0.5"/>
<stop offset="1" stop-color="#945DCB"/>
</linearGradient>
<linearGradient id="paint3_linear_125_81" x1="431.999" y1="411.596" x2="432.875" y2="216.598" gradientUnits="userSpaceOnUse">
<stop stop-color="#C961DE" stop-opacity="0"/>
<stop offset="0.624126" stop-color="#2954A3" stop-opacity="0.5"/>
<stop offset="1" stop-color="#945DCB"/>
</linearGradient>
<linearGradient id="paint4_linear_125_81" x1="505.946" y1="13.711" x2="504.904" y2="208.708" gradientUnits="userSpaceOnUse">
<stop stop-color="#C961DE" stop-opacity="0"/>
<stop offset="0.624126" stop-color="#2954A3" stop-opacity="0.5"/>
<stop offset="1" stop-color="#945DCB"/>
</linearGradient>
<linearGradient id="paint5_linear_125_81" x1="318.879" y1="211.624" x2="322.783" y2="16.6629" gradientUnits="userSpaceOnUse">
<stop stop-color="#C961DE" stop-opacity="0"/>
<stop offset="0.624126" stop-color="#2954A3" stop-opacity="0.5"/>
<stop offset="1" stop-color="#945DCB"/>
</linearGradient>
<linearGradient id="paint6_linear_125_81" x1="136.686" y1="2.53052" x2="132.976" y2="197.495" gradientUnits="userSpaceOnUse">
<stop stop-color="#C961DE" stop-opacity="0"/>
<stop offset="0.624126" stop-color="#2954A3" stop-opacity="0.5"/>
<stop offset="1" stop-color="#945DCB"/>
</linearGradient>
<linearGradient id="paint7_linear_125_81" x1="424.125" y1="302.5" x2="424.125" y2="332.5" gradientUnits="userSpaceOnUse">
<stop stop-color="#7D5FBB"/>
<stop offset="0.489583" stop-color="#7D5FBB"/>
<stop offset="1" stop-color="#7D5FBB"/>
</linearGradient>
</defs>
</svg>
