<svg width="48" height="48" viewBox="0 0 48 48" fill="none" xmlns="http://www.w3.org/2000/svg">
  <circle cx="24" cy="24" r="20" fill="#7A658E" />
  <path fill-rule="evenodd" clip-rule="evenodd"
    d="M14.1409 16.4021C14.3402 14.9296 15.6396 14 16.99 14H19.5585C20.8498 14 21.9962 14.8263 22.4045 16.0513L23.454 19.1996C23.905 20.5528 23.1086 22.0036 21.7248 22.3496C21.3865 22.4342 21.2697 22.8555 21.5164 23.1022L24.8978 26.4836C25.1445 26.7303 25.5658 26.6135 25.6504 26.2752C25.9964 24.8914 27.4472 24.095 28.8004 24.546L31.9487 25.5955C33.1737 26.0038 34 27.1502 34 28.4415V31.01C34 32.3604 33.0704 33.6598 31.5979 33.8591C30.9114 33.9521 30.211 34 29.5 34C20.9396 34 14 27.0604 14 18.5C14 17.789 14.0479 17.0886 14.1409 16.4021Z"
    fill="white" />
</svg>
  